<svg width="79" height="79" viewBox="0 0 79 79" fill="none" xmlns="http://www.w3.org/2000/svg">
<rect width="78.392" height="78.392" transform="translate(0 0.306641)" fill="white"/>
<path d="M39.199 6.83936C21.1525 6.83936 6.53564 21.4562 6.53564 39.5027C6.53564 53.9562 15.8855 66.1641 28.8692 70.492C30.5024 70.7778 31.1148 69.7979 31.1148 68.9405C31.1148 68.1647 31.074 65.5925 31.074 62.8569C22.8673 64.3676 20.7442 60.8563 20.0909 59.019C19.7235 58.0799 18.1311 55.1811 16.7429 54.4053C15.5997 53.7929 13.9665 52.2822 16.7021 52.2414C19.2743 52.2005 21.1116 54.6095 21.7241 55.5894C24.6638 60.5297 29.3591 59.1415 31.2373 58.2841C31.5231 56.161 32.3805 54.7319 33.3196 53.9154C26.052 53.0988 18.4578 50.2816 18.4578 37.7878C18.4578 34.2357 19.7235 31.296 21.8057 29.0096C21.4791 28.193 20.3359 24.845 22.1324 20.3538C22.1324 20.3538 24.8679 19.4964 31.1148 23.7018C33.7279 22.9669 36.5043 22.5994 39.2807 22.5994C42.0571 22.5994 44.8334 22.9669 47.4465 23.7018C53.6934 19.4556 56.4289 20.3538 56.4289 20.3538C58.2254 24.845 57.0822 28.193 56.7556 29.0096C58.8378 31.296 60.1035 34.1949 60.1035 37.7878C60.1035 50.3224 52.4685 53.0988 45.2009 53.9154C46.385 54.9361 47.4057 56.8959 47.4057 59.9581C47.4057 64.3268 47.3649 67.8381 47.3649 68.9405C47.3649 69.7979 47.9773 70.8186 49.6105 70.492C62.9061 66.0034 71.8587 53.5358 71.8623 39.5027C71.8623 21.4562 57.2455 6.83936 39.199 6.83936Z" fill="black"/>
</svg>
