<svg width="80" height="79" viewBox="0 0 80 79" fill="none" xmlns="http://www.w3.org/2000/svg">
<path d="M39.9227 29.397C34.509 29.397 30.1236 33.784 30.1236 39.196C30.1236 44.6093 34.5107 48.995 39.9227 48.995C45.336 48.995 49.7217 44.608 49.7217 39.196C49.7217 33.7827 45.3346 29.397 39.9227 29.397ZM39.9227 22.8644C48.939 22.8644 56.2543 30.1715 56.2543 39.196C56.2543 48.2127 48.9472 55.5277 39.9227 55.5277C30.906 55.5277 23.5909 48.2206 23.5909 39.196C23.5909 30.1794 30.898 22.8644 39.9227 22.8644ZM61.1538 22.045C61.1538 24.2991 59.322 26.128 57.0709 26.128C54.8168 26.128 52.988 24.2963 52.988 22.045C52.988 19.7937 54.8194 17.9649 57.0709 17.9649C59.3191 17.962 61.1538 19.7937 61.1538 22.045ZM39.9227 13.0654C31.8401 13.0654 30.5227 13.0868 26.7635 13.2542C24.2023 13.3744 22.4854 13.7189 20.8903 14.3382C19.4727 14.888 18.4501 15.5445 17.3605 16.634C16.2668 17.7277 15.6115 18.7476 15.0639 20.1658C14.4432 21.7647 14.0988 23.4788 13.9807 26.0365C13.8117 29.6427 13.7919 30.903 13.7919 39.196C13.7919 47.2786 13.8133 48.5959 13.9807 52.3548C14.101 54.9149 14.4459 56.6343 15.0637 58.2257C15.6149 59.6452 16.2728 60.6702 17.3571 61.7546C18.4551 62.8511 19.478 63.5086 20.8828 64.0508C22.4974 64.675 24.2132 65.02 26.763 65.1379C30.3692 65.3068 31.6295 65.3267 39.9227 65.3267C48.0052 65.3267 49.3225 65.3051 53.0814 65.1379C55.636 65.018 57.3567 64.6721 58.9523 64.0548C60.3679 63.505 61.3962 62.8449 62.4812 61.7615C63.5794 60.6617 64.2356 59.6413 64.7785 58.2332C65.401 56.6245 65.7466 54.9064 65.8645 52.3558C66.0334 48.7494 66.0533 47.4889 66.0533 39.196C66.0533 31.1136 66.0317 29.7962 65.8645 26.0372C65.7443 23.4819 65.3984 21.7587 64.7804 20.1637C64.232 18.75 63.5732 17.7243 62.4845 16.634C61.389 15.5385 60.3719 14.8845 58.9526 14.3374C57.3551 13.7171 55.6383 13.3723 53.0821 13.2542C49.476 13.0851 48.2155 13.0654 39.9227 13.0654ZM39.9227 6.53271C48.796 6.53271 49.9039 6.56538 53.3881 6.72869C56.8638 6.8893 59.2348 7.43912 61.3171 8.24754C63.47 9.07774 65.2883 10.1992 67.1038 12.0147C68.9166 13.8303 70.0382 15.6539 70.8711 17.8016C71.6766 19.8811 72.2267 22.2546 72.39 25.7306C72.5451 29.2147 72.586 30.3225 72.586 39.196C72.586 48.0697 72.5533 49.1773 72.39 52.6615C72.2293 56.1375 71.6766 58.5082 70.8711 60.5905C70.0408 62.7437 68.9166 64.5617 67.1038 66.3775C65.2883 68.1903 63.4618 69.3116 61.3171 70.1445C59.2348 70.9503 56.8638 71.5 53.3881 71.6634C49.9039 71.8185 48.796 71.8593 39.9227 71.8593C31.049 71.8593 29.9412 71.8267 26.4571 71.6634C22.9812 71.5027 20.6131 70.9503 18.5281 70.1445C16.3778 69.3142 14.5568 68.1903 12.7413 66.3775C10.9257 64.5617 9.80702 62.7355 8.9741 60.5905C8.16568 58.5082 7.61857 56.1375 7.45526 52.6615C7.30011 49.1773 7.25928 48.0697 7.25928 39.196C7.25928 30.3225 7.29194 29.2147 7.45526 25.7306C7.61583 22.2519 8.16568 19.8838 8.9741 17.8016C9.80427 15.6512 10.9257 13.8303 12.7413 12.0147C14.5568 10.1992 16.3805 9.08045 18.5281 8.24754C20.6104 7.43912 22.9785 6.89201 26.4571 6.72869C29.9412 6.57354 31.049 6.53271 39.9227 6.53271Z" fill="black"/>
</svg>
