<svg width="69" height="69" viewBox="0 0 69 69" fill="none" xmlns="http://www.w3.org/2000/svg">
<g clip-path="url(#clip0_190_185)">
<path d="M14.7209 0.827279C14.7897 0.827071 14.8585 0.826863 14.9294 0.826648C15.1597 0.82606 15.3901 0.826097 15.6205 0.826133C15.7874 0.825841 15.9543 0.825512 16.1213 0.825148C16.5799 0.824263 17.0385 0.823933 17.4972 0.823698C17.9919 0.823352 18.4867 0.822505 18.9814 0.821733C20.1765 0.819986 21.3715 0.819094 22.5665 0.818307C23.1298 0.817919 23.6931 0.817444 24.2564 0.816981C26.1301 0.815476 28.0037 0.814192 29.8774 0.813553C29.9985 0.813511 30.1197 0.813469 30.2408 0.813427C30.3009 0.813406 30.3609 0.813385 30.4228 0.813363C30.7271 0.813257 31.0314 0.81315 31.3357 0.813041C31.4263 0.813009 31.4263 0.813009 31.5187 0.812977C33.474 0.81228 35.4294 0.810209 37.3847 0.80733C39.4544 0.804289 41.5241 0.802552 43.5939 0.802261C44.7211 0.80207 45.8483 0.801302 46.9755 0.799036C47.936 0.797109 48.8964 0.796407 49.8569 0.797264C50.3463 0.797664 50.8357 0.797509 51.325 0.795781C55.1528 0.783009 55.1528 0.783009 56.7425 1.19301C56.8033 1.20841 56.864 1.22381 56.9266 1.23967C57.2689 1.32817 57.6028 1.43074 57.9368 1.54686C58.0848 1.59741 58.0848 1.59741 58.2358 1.64899C61.6323 2.85627 64.4683 5.26416 66.2966 8.35852C66.3497 8.44747 66.3497 8.44747 66.404 8.53821C66.9074 9.3937 67.2909 10.2725 67.6124 11.2115C67.644 11.3017 67.6756 11.392 67.7082 11.485C67.8098 11.7966 67.8958 12.1106 67.9773 12.4278C67.9928 12.4875 68.0082 12.5471 68.0241 12.6086C68.4643 14.4136 68.3813 16.2717 68.3762 18.1156C68.3752 18.6103 68.3762 19.1049 68.377 19.5996C68.3783 20.5659 68.3776 21.5321 68.3763 22.4984C68.3748 23.6255 68.3751 24.7525 68.3754 25.8796C68.3759 27.9518 68.3745 30.0241 68.3723 32.0964C68.3702 33.9847 68.3698 35.8729 68.3707 37.7612C68.3709 38.2452 68.3711 38.7291 68.3713 39.213C68.3714 39.2726 68.3714 39.3322 68.3714 39.3936C68.3721 40.976 68.3715 42.5583 68.3706 44.1407C68.3704 44.3677 68.3703 44.5946 68.3702 44.8216C68.3701 44.9333 68.37 45.0449 68.37 45.16C68.3695 45.9444 68.3697 46.7288 68.3701 47.5132C68.3705 48.4696 68.37 49.426 68.3682 50.3824C68.3674 50.8697 68.3669 51.3571 68.3676 51.8444C68.3682 52.2915 68.3676 52.7385 68.366 53.1856C68.3657 53.3464 68.3658 53.5071 68.3664 53.6679C68.3709 55.0464 68.2152 56.368 67.817 57.6933C67.794 57.7712 67.771 57.849 67.7473 57.9293C67.1932 59.7636 66.3472 61.4451 65.1465 62.9403C65.1058 62.9911 65.0651 63.042 65.0231 63.0944C63.8257 64.5749 62.4504 65.776 60.8118 66.7442C60.7229 66.7974 60.7229 66.7974 60.6321 66.8516C59.7767 67.355 58.8979 67.7386 57.9589 68.0601C57.8686 68.0917 57.7783 68.1233 57.6853 68.1558C57.3738 68.2574 57.0598 68.3435 56.7425 68.425C56.6828 68.4404 56.6232 68.4558 56.5617 68.4717C54.7582 68.911 52.9023 68.8296 51.0599 68.8251C50.566 68.8243 50.0721 68.8255 49.5781 68.8265C48.6131 68.8281 47.6482 68.8278 46.6832 68.8267C45.8983 68.8259 45.1134 68.8258 44.3286 68.8262C44.2165 68.8262 44.1044 68.8263 43.9889 68.8264C43.7611 68.8265 43.5333 68.8266 43.3055 68.8267C41.2348 68.8277 39.1642 68.8267 37.0935 68.8248C35.2076 68.8231 33.3217 68.8233 31.4358 68.825C29.3115 68.8269 27.1873 68.8276 25.063 68.8265C24.8361 68.8264 24.6092 68.8263 24.3823 68.8262C24.2707 68.8261 24.1591 68.8261 24.0441 68.826C23.2609 68.8257 22.4778 68.8262 21.6946 68.8271C20.7391 68.8281 19.7836 68.8278 18.8281 68.8259C18.3414 68.825 17.8548 68.8246 17.3681 68.8258C13.577 68.8342 13.577 68.8342 12.0686 68.425C11.9906 68.4044 11.9125 68.3838 11.8321 68.3625C9.79935 67.8201 7.86512 66.9325 6.23007 65.5942C6.18324 65.5562 6.13642 65.5182 6.08817 65.4791C2.90835 62.8912 0.86414 59.2448 0.391501 55.1555C0.349259 54.5821 0.355111 54.0075 0.357205 53.4329C0.356835 53.2651 0.35635 53.0973 0.355761 52.9295C0.354493 52.4731 0.354856 52.0167 0.355511 51.5602C0.355932 51.0662 0.354821 50.5721 0.353917 50.078C0.352401 49.1118 0.352322 48.1456 0.352786 47.1794C0.353144 46.3935 0.353015 45.6076 0.352543 44.8216C0.352477 44.7095 0.35241 44.5973 0.352342 44.4818C0.352206 44.254 0.352071 44.0261 0.351934 43.7983C0.351066 42.2698 0.350695 40.7414 0.35137 39.213C0.351396 39.1534 0.351423 39.0937 0.35145 39.0322C0.351666 38.5478 0.351898 38.0634 0.35213 37.5791C0.353023 35.6908 0.352285 33.8027 0.350228 31.9144C0.347916 29.7886 0.346791 27.6628 0.347414 25.5369C0.347722 24.413 0.34753 23.2891 0.345976 22.1651C0.344669 21.2082 0.344624 20.2513 0.34616 19.2944C0.346909 18.807 0.347111 18.3196 0.345748 17.8322C0.335845 14.0194 0.335845 14.0194 0.745353 12.4278C0.76075 12.3671 0.776147 12.3063 0.792011 12.2437C0.88051 11.9014 0.983096 11.5676 1.09921 11.2336C1.13291 11.1349 1.16661 11.0362 1.20134 10.9346C2.40745 7.54138 4.81584 4.69706 7.91087 2.87381C8.00193 2.81992 8.00193 2.81992 8.09484 2.76495C10.0483 1.62847 12.4404 0.822534 14.7209 0.827279Z" fill="black"/>
<path d="M33.8804 13.2059C34.0958 13.2075 34.3112 13.2077 34.5265 13.2077C35.8889 13.2105 37.2211 13.2916 38.5689 13.5061C38.63 13.5158 38.691 13.5254 38.7539 13.5354C39.8764 13.7154 40.9706 13.9508 42.0577 14.2856C42.1548 14.3154 42.252 14.3451 42.352 14.3757C45.1787 15.2572 47.9043 16.5453 50.1963 18.4434C50.2681 18.5019 50.2681 18.5019 50.3413 18.5616C53.6718 21.2833 56.0246 24.8033 56.831 29.059C56.8475 29.1411 56.864 29.2232 56.8809 29.3078C57.0115 30.0066 57.0388 30.6877 57.0356 31.3977C57.0348 31.5724 57.0348 31.5724 57.0341 31.7505C56.9825 37.0282 54.0261 41.1481 50.4395 44.7501C50.3737 44.8164 50.3078 44.8827 50.24 44.951C49.8269 45.3629 49.4012 45.7534 48.9578 46.1324C48.8548 46.2216 48.7518 46.3109 48.6489 46.4002C48.0536 46.9132 47.4537 47.4173 46.8347 47.9016C46.78 47.9447 46.7253 47.9877 46.669 48.0321C35.8259 56.5679 35.8259 56.5679 32.9352 56.4231C32.7015 56.3823 32.5723 56.3054 32.4152 56.1287C32.1734 55.4035 32.3753 54.605 32.5036 53.8729C32.6184 53.172 32.7163 52.4831 32.7193 51.7719C32.7201 51.7093 32.721 51.6468 32.7219 51.5824C32.7142 51.1222 32.6077 50.7557 32.2842 50.4194C31.3935 49.8527 30.2308 49.7447 29.2099 49.5436C26.9694 49.0996 24.8283 48.468 22.7727 47.4593C22.6964 47.422 22.6202 47.3847 22.5416 47.3463C20.5371 46.356 18.7256 45.1163 17.1111 43.5669C17.0564 43.5152 17.0018 43.4634 16.9454 43.4101C13.7751 40.3945 11.8269 36.3429 11.6937 31.9513C11.6721 30.6494 11.7733 29.442 12.0687 28.1744C12.0885 28.0836 12.0885 28.0836 12.1087 27.991C12.7538 25.0568 14.4342 22.444 16.4918 20.3011C16.5393 20.2513 16.5867 20.2014 16.6356 20.15C17.3632 19.3891 18.123 18.7157 18.9688 18.0896C19.0175 18.0527 19.0663 18.0158 19.1165 17.9778C21.7915 15.954 24.9643 14.6161 28.2234 13.8903C28.3612 13.8596 28.4989 13.8283 28.6364 13.7963C29.1139 13.6864 29.5917 13.6042 30.0764 13.5337C30.1798 13.5181 30.1798 13.5181 30.2853 13.5023C30.5233 13.4671 30.7615 13.4341 30.9998 13.401C31.1034 13.3855 31.2071 13.3699 31.3138 13.3539C32.1729 13.2333 33.0135 13.1992 33.8804 13.2059Z" fill="#FEFEFE"/>
<path d="M39.3847 26.6468C39.4665 26.6465 39.5482 26.6463 39.6325 26.6461C39.7176 26.6468 39.8028 26.6474 39.8906 26.6481C40.0184 26.6471 40.0184 26.6471 40.1487 26.6461C40.2305 26.6463 40.3123 26.6465 40.3965 26.6468C40.5086 26.6471 40.5086 26.6471 40.623 26.6474C40.8195 26.6703 40.8195 26.6703 41.0848 26.8472C41.1182 27.0315 41.1182 27.0315 41.1185 27.2636C41.1193 27.3514 41.12 27.4392 41.1208 27.5297C41.1203 27.6264 41.1197 27.7231 41.1192 27.8227C41.1197 27.9243 41.1201 28.0258 41.1206 28.1304C41.1218 28.4675 41.121 28.8046 41.1201 29.1417C41.1203 29.3751 41.1205 29.6084 41.1209 29.8418C41.1213 30.3314 41.1207 30.8211 41.1194 31.3107C41.118 31.8772 41.1185 32.4437 41.1199 33.0103C41.1213 33.5547 41.1211 34.0991 41.1204 34.6435C41.1202 34.8755 41.1204 35.1074 41.121 35.3393C41.1217 35.663 41.1207 35.9867 41.1192 36.3103C41.1197 36.407 41.1203 36.5037 41.1208 36.6033C41.1201 36.6912 41.1193 36.779 41.1185 36.8695C41.1184 36.946 41.1183 37.0226 41.1182 37.1015C41.1072 37.1624 41.0962 37.2232 41.0848 37.2858C40.5316 37.6547 39.7574 37.6199 39.1148 37.5356C38.4505 37.3353 38.1014 36.6403 37.7622 36.0791C37.5842 35.7876 37.3834 35.5153 37.1814 35.2401C37.1105 35.1399 37.0398 35.0396 36.9692 34.9391C36.7329 34.6053 36.4877 34.2785 36.2415 33.9519C35.8292 33.4049 35.4204 32.8556 35.0141 32.3043C34.9606 32.2318 34.9072 32.1594 34.8521 32.0848C34.8022 32.017 34.7524 31.9493 34.701 31.8796C34.6568 31.8196 34.6126 31.7595 34.567 31.6977C34.4658 31.5575 34.3691 31.4142 34.2732 31.2703C34.2727 31.3464 34.2721 31.4225 34.2716 31.5009C34.2665 32.2169 34.2601 32.9328 34.2523 33.6488C34.2484 34.0169 34.2449 34.3849 34.2425 34.7531C34.2402 35.1081 34.2367 35.4632 34.2322 35.8182C34.2307 35.9539 34.2297 36.0895 34.2292 36.2252C34.2283 36.4148 34.2258 36.6043 34.223 36.7939C34.222 36.9019 34.221 37.01 34.22 37.1213C34.2025 37.2465 34.2025 37.2465 34.1847 37.3743C33.7979 37.6322 33.4453 37.5804 32.9905 37.5789C32.8627 37.581 32.8627 37.581 32.7323 37.5832C32.6506 37.5833 32.5688 37.5833 32.4846 37.5834C32.3724 37.5838 32.3724 37.5838 32.2581 37.5842C32.012 37.5429 31.9484 37.481 31.7962 37.2858C31.7631 37.092 31.7631 37.092 31.7631 36.8622C31.7625 36.775 31.7619 36.6878 31.7612 36.5979C31.7619 36.5024 31.7626 36.4068 31.7633 36.3084C31.763 36.2077 31.7626 36.107 31.7623 36.0032C31.7616 35.6695 31.7628 35.3358 31.7641 35.002C31.7641 34.7708 31.7641 34.5395 31.7639 34.3083C31.7639 33.8233 31.7648 33.3384 31.7665 32.8535C31.7683 32.2924 31.7687 31.7314 31.7681 31.1703C31.7676 30.631 31.7681 30.0916 31.7691 29.5522C31.7694 29.3225 31.7695 29.0928 31.7694 28.8631C31.7694 28.5426 31.7705 28.2221 31.7719 27.9016C31.7717 27.8059 31.7715 27.7102 31.7713 27.6116C31.7719 27.5246 31.7725 27.4377 31.7732 27.3481C31.7733 27.2723 31.7735 27.1964 31.7737 27.1183C31.7962 26.9357 31.7962 26.9357 31.9731 26.7587C32.6489 26.597 33.4273 26.5646 34.0963 26.7587C34.6063 27.1099 34.8928 27.6737 35.1934 28.2012C35.4224 28.5873 35.6942 28.9392 35.965 29.2965C36.0683 29.4363 36.1714 29.5763 36.2743 29.7164C36.592 30.1466 36.9125 30.5747 37.2348 31.0014C37.6989 31.6171 38.1526 32.2405 38.6079 32.8627C38.6087 32.7502 38.6087 32.7502 38.6095 32.6355C38.6146 31.9299 38.6209 31.2244 38.6287 30.5189C38.6327 30.1561 38.6362 29.7934 38.6385 29.4306C38.6408 29.0807 38.6444 28.7309 38.6489 28.381C38.6503 28.2473 38.6513 28.1136 38.6519 27.9799C38.6527 27.7931 38.6552 27.6063 38.6581 27.4195C38.6591 27.313 38.6601 27.2065 38.6611 27.0968C38.6727 27.0145 38.6843 26.9321 38.6963 26.8472C38.9801 26.658 39.058 26.6476 39.3847 26.6468Z" fill="black"/>
<path d="M43.3053 26.7337C43.368 26.7339 43.4306 26.7341 43.4952 26.7343C43.5612 26.7339 43.6272 26.7334 43.6953 26.733C43.9142 26.7317 44.1331 26.7318 44.352 26.732C44.5038 26.7317 44.6557 26.7313 44.8075 26.7309C45.126 26.7302 45.4445 26.7302 45.763 26.7307C46.1716 26.7312 46.5801 26.7297 46.9886 26.7277C47.3023 26.7264 47.6159 26.7263 47.9296 26.7265C48.0802 26.7265 48.2309 26.726 48.3815 26.7252C48.5921 26.7241 48.8025 26.7247 49.0131 26.7257C49.1067 26.7247 49.1067 26.7247 49.2023 26.7236C49.4578 26.7264 49.6257 26.7301 49.8371 26.8811C49.9656 27.0765 49.964 27.2141 49.9632 27.447C49.9631 27.5696 49.9631 27.5696 49.963 27.6947C49.9616 27.7799 49.9602 27.8651 49.9587 27.9529C49.959 28.0381 49.9593 28.1232 49.9596 28.211C49.9547 28.8463 49.9547 28.8463 49.7541 29.1471C49.5582 29.179 49.5582 29.179 49.3118 29.1773C49.1736 29.1772 49.1736 29.1772 49.0327 29.1772C48.933 29.1758 48.8333 29.1745 48.7306 29.173C48.5778 29.1725 48.5778 29.1725 48.4219 29.1719C48.0956 29.1704 47.7693 29.1671 47.443 29.1637C47.2222 29.1624 47.0014 29.1612 46.7806 29.1601C46.2384 29.1572 45.6962 29.1526 45.154 29.1471C45.154 29.7018 45.154 30.2565 45.154 30.8279C45.2893 30.8265 45.4246 30.8251 45.564 30.8237C46.065 30.8189 46.566 30.8159 47.067 30.8133C47.2841 30.812 47.5011 30.8102 47.7181 30.8079C48.0297 30.8047 48.3412 30.8032 48.6528 30.802C48.7501 30.8006 48.8475 30.7993 48.9477 30.7979C49.0832 30.7978 49.0832 30.7978 49.2214 30.7978C49.3009 30.7972 49.3805 30.7966 49.4625 30.796C49.707 30.8344 49.7846 30.897 49.9311 31.0933C49.9654 31.2979 49.9654 31.2979 49.9663 31.5356C49.9666 31.6214 49.967 31.7071 49.9673 31.7955C49.9663 31.8849 49.9653 31.9743 49.9642 32.0664C49.9653 32.1558 49.9663 32.2452 49.9673 32.3373C49.967 32.4231 49.9667 32.5088 49.9663 32.5972C49.966 32.6756 49.9657 32.7541 49.9654 32.8349C49.9231 33.087 49.8665 33.1504 49.6657 33.3049C49.4625 33.3368 49.4625 33.3368 49.2214 33.335C49.1311 33.335 49.0408 33.335 48.9477 33.335C48.8504 33.3336 48.7531 33.3322 48.6528 33.3308C48.5032 33.3302 48.5032 33.3302 48.3505 33.3297C48.0314 33.3282 47.7124 33.3249 47.3933 33.3215C47.1771 33.3201 46.961 33.3189 46.7448 33.3178C46.2145 33.3149 45.6843 33.3103 45.154 33.3049C45.154 33.8596 45.154 34.4142 45.154 34.9857C45.2893 34.9843 45.4246 34.9829 45.564 34.9815C46.065 34.9767 46.566 34.9736 47.067 34.9711C47.2841 34.9698 47.5011 34.968 47.7181 34.9657C48.0297 34.9625 48.3412 34.9609 48.6528 34.9598C48.7501 34.9584 48.8475 34.957 48.9477 34.9556C49.0832 34.9556 49.0832 34.9556 49.2214 34.9556C49.3009 34.955 49.3805 34.9544 49.4625 34.9538C49.707 34.9922 49.7846 35.0547 49.9311 35.2511C49.9654 35.4557 49.9654 35.4557 49.9663 35.6934C49.9666 35.7791 49.967 35.8649 49.9673 35.9533C49.9663 36.0427 49.9653 36.1321 49.9642 36.2242C49.9653 36.3136 49.9663 36.403 49.9673 36.4951C49.967 36.5808 49.9667 36.6666 49.9663 36.755C49.966 36.8334 49.9657 36.9119 49.9654 36.9927C49.9221 37.2508 49.8783 37.3107 49.6657 37.4627C49.444 37.4888 49.2443 37.4989 49.0226 37.497C48.9574 37.4975 48.8922 37.4979 48.825 37.4984C48.6095 37.4996 48.3939 37.4988 48.1784 37.4979C48.0287 37.4981 47.8789 37.4983 47.7292 37.4987C47.4154 37.4991 47.1016 37.4985 46.7878 37.4973C46.3853 37.4957 45.9828 37.4966 45.5803 37.4982C45.2711 37.4992 44.962 37.4989 44.6528 37.4982C44.5044 37.498 44.3559 37.4982 44.2075 37.4988C44.0002 37.4995 43.7929 37.4985 43.5855 37.497C43.5241 37.4975 43.4626 37.4981 43.3992 37.4986C42.9842 37.4931 42.9842 37.4931 42.794 37.3541C42.6418 37.15 42.6439 37.0303 42.644 36.777C42.6433 36.6905 42.6427 36.6041 42.6421 36.515C42.6428 36.4203 42.6434 36.3255 42.6441 36.228C42.6438 36.1281 42.6435 36.0283 42.6432 35.9254C42.6424 35.5945 42.6436 35.2637 42.6449 34.9328C42.645 34.7036 42.6449 34.4743 42.6448 34.245C42.6448 33.7642 42.6457 33.2835 42.6473 32.8027C42.6492 32.2465 42.6495 31.6902 42.649 31.134C42.6485 30.5993 42.649 30.0646 42.65 29.5298C42.6503 29.3021 42.6504 29.0743 42.6503 28.8466C42.6502 28.5288 42.6513 28.2111 42.6528 27.8934C42.6526 27.7985 42.6523 27.7036 42.6521 27.6058C42.6527 27.5196 42.6534 27.4334 42.654 27.3446C42.6542 27.2694 42.6544 27.1943 42.6546 27.1168C42.7042 26.7173 42.9629 26.7374 43.3053 26.7337Z" fill="black"/>
<path d="M19.7982 26.7356C19.8927 26.7353 19.9871 26.7351 20.0844 26.7349C20.2328 26.7359 20.2328 26.7359 20.3843 26.7369C20.4833 26.7363 20.5823 26.7356 20.6843 26.7349C20.7787 26.7351 20.8731 26.7353 20.9704 26.7356C21.0573 26.7358 21.1442 26.736 21.2337 26.7362C21.4459 26.7591 21.4459 26.7591 21.6228 26.936C21.6394 27.1918 21.6451 27.4392 21.6429 27.695C21.6429 27.7736 21.6429 27.8521 21.643 27.9331C21.6428 28.1935 21.6415 28.4538 21.6401 28.7142C21.6397 28.8945 21.6395 29.0747 21.6393 29.2549C21.6386 29.7299 21.6369 30.2049 21.6349 30.6799C21.6331 31.1643 21.6323 31.6487 21.6314 32.1332C21.6295 33.0842 21.6265 34.0351 21.6228 34.9861C21.6776 34.9857 21.7324 34.9853 21.7889 34.9849C22.3586 34.981 22.9283 34.9784 23.498 34.9764C23.7107 34.9755 23.9234 34.9743 24.1362 34.9728C24.4416 34.9706 24.747 34.9696 25.0525 34.9688C25.1478 34.9679 25.2432 34.967 25.3415 34.9661C25.4743 34.9661 25.4743 34.9661 25.6098 34.966C25.6878 34.9656 25.7658 34.9653 25.8461 34.9648C26.046 34.9861 26.046 34.9861 26.3113 35.1631C26.3443 35.3752 26.3443 35.3752 26.3435 35.6385C26.3434 35.7802 26.3434 35.7802 26.3433 35.9247C26.3419 36.0236 26.3405 36.1226 26.339 36.2246C26.3393 36.3236 26.3396 36.4226 26.3398 36.5246C26.3349 37.2626 26.3349 37.2626 26.1344 37.4631C25.9201 37.4811 25.7158 37.4882 25.5014 37.4874C25.4036 37.4881 25.4036 37.4881 25.3039 37.4888C25.0878 37.49 24.8718 37.4899 24.6558 37.4897C24.5059 37.49 24.3561 37.4904 24.2062 37.4909C23.8919 37.4915 23.5775 37.4915 23.2632 37.491C22.86 37.4905 22.4568 37.492 22.0536 37.4941C21.7441 37.4954 21.4345 37.4954 21.125 37.4952C20.9763 37.4952 20.8276 37.4957 20.679 37.4966C20.4712 37.4977 20.2635 37.4971 20.0557 37.496C19.9941 37.4967 19.9324 37.4974 19.8689 37.4981C19.4529 37.4935 19.4529 37.4935 19.2627 37.3546C19.1106 37.1505 19.1127 37.0307 19.1127 36.7774C19.1121 36.691 19.1115 36.6045 19.1108 36.5154C19.1115 36.4207 19.1122 36.326 19.1129 36.2284C19.1126 36.1285 19.1122 36.0287 19.1119 35.9258C19.1112 35.595 19.1124 35.2641 19.1137 34.9333C19.1137 34.704 19.1137 34.4747 19.1136 34.2455C19.1136 33.7647 19.1145 33.2839 19.1161 32.8031C19.118 32.2469 19.1183 31.6907 19.1177 31.1345C19.1172 30.5997 19.1177 30.065 19.1187 29.5303C19.119 29.3025 19.1191 29.0748 19.119 28.847C19.119 28.5293 19.1201 28.2116 19.1215 27.8938C19.1213 27.7989 19.1211 27.704 19.1209 27.6063C19.1215 27.5201 19.1221 27.4339 19.1228 27.345C19.1229 27.2699 19.1231 27.1947 19.1233 27.1173C19.1745 26.7052 19.4523 26.7363 19.7982 26.7356Z" fill="black"/>
<path d="M28.4345 26.6353C28.5203 26.635 28.606 26.6346 28.6944 26.6343C28.7838 26.6353 28.8732 26.6363 28.9653 26.6374C29.0547 26.6364 29.1441 26.6353 29.2362 26.6343C29.322 26.6346 29.4077 26.635 29.4961 26.6353C29.5745 26.6356 29.653 26.6359 29.7338 26.6362C29.9853 26.6784 30.0487 26.7366 30.2038 26.936C30.2372 27.1281 30.2372 27.1281 30.2375 27.3557C30.2382 27.442 30.239 27.5283 30.2397 27.6172C30.2392 27.7118 30.2387 27.8064 30.2381 27.9039C30.2386 28.0036 30.239 28.1033 30.2395 28.206C30.2407 28.5364 30.2399 28.8668 30.239 29.1973C30.2392 29.4263 30.2395 29.6554 30.2398 29.8845C30.2402 30.3649 30.2396 30.8453 30.2384 31.3257C30.2369 31.8812 30.2374 32.4367 30.2389 32.9922C30.2402 33.5265 30.2401 34.0607 30.2393 34.595C30.2391 34.8224 30.2393 35.0499 30.24 35.2773C30.2406 35.5948 30.2396 35.9123 30.2381 36.2298C30.2389 36.3716 30.2389 36.3716 30.2397 36.5164C30.239 36.6027 30.2383 36.689 30.2375 36.778C30.2374 36.8531 30.2373 36.9281 30.2372 37.0055C30.1962 37.2415 30.1274 37.3199 29.9384 37.4631C29.7338 37.4974 29.7338 37.4974 29.4961 37.4983C29.4103 37.4987 29.3246 37.499 29.2362 37.4993C29.1468 37.4983 29.0574 37.4973 28.9653 37.4962C28.8759 37.4973 28.7865 37.4983 28.6944 37.4993C28.6086 37.499 28.5229 37.4987 28.4345 37.4983C28.3561 37.498 28.2776 37.4977 28.1968 37.4974C27.9453 37.4552 27.8819 37.397 27.7268 37.1977C27.6934 37.0055 27.6934 37.0055 27.6931 36.778C27.6924 36.6916 27.6916 36.6053 27.6908 36.5164C27.6914 36.4218 27.6919 36.3272 27.6925 36.2298C27.692 36.1301 27.6915 36.0304 27.6911 35.9276C27.6899 35.5972 27.6907 35.2668 27.6916 34.9363C27.6914 34.7073 27.6911 34.4782 27.6908 34.2492C27.6904 33.7688 27.6909 33.2884 27.6922 32.808C27.6937 32.2524 27.6932 31.6969 27.6917 31.1414C27.6904 30.6071 27.6905 30.0729 27.6913 29.5386C27.6915 29.3112 27.6913 29.0838 27.6906 28.8563C27.69 28.5388 27.691 28.2214 27.6925 27.9039C27.6919 27.8093 27.6914 27.7147 27.6908 27.6172C27.6916 27.5309 27.6923 27.4446 27.6931 27.3557C27.6932 27.2806 27.6933 27.2055 27.6934 27.1281C27.7683 26.6972 28.0391 26.6368 28.4345 26.6353Z" fill="black"/>
</g>
<defs>
<clipPath id="clip0_190_185">
<rect width="67.9397" height="67.9397" fill="white" transform="translate(0.391602 0.839111)"/>
</clipPath>
</defs>
</svg>
