<svg width="79" height="79" viewBox="0 0 79 79" fill="none" xmlns="http://www.w3.org/2000/svg">
<path d="M13.677 10.4121H65.9383C67.7423 10.4121 69.2047 11.8745 69.2047 13.6784V65.9397C69.2047 67.7437 67.7423 69.2061 65.9383 69.2061H13.677C11.873 69.2061 10.4106 67.7437 10.4106 65.9397V13.6784C10.4106 11.8745 11.873 10.4121 13.677 10.4121ZM57.1222 52.6794C56.7939 52.5154 56.6299 52.0232 56.6299 51.6953V26.7648C56.6299 26.4367 56.7939 25.9447 57.1222 25.6167L60.2386 22.0083V21.8443H49.0851L40.7197 43.0023L31.2063 21.8443H19.7246V22.0083L22.6771 26.1087C23.3332 26.7648 23.4972 27.7489 23.4972 28.569V46.6109C23.6612 47.5947 23.4972 48.7428 23.0051 49.727L18.5765 55.7958V55.9598H30.3862V55.7958L25.9575 49.891C25.4655 48.9071 25.3014 47.923 25.4655 46.7749V30.3731C25.6295 30.7012 25.7935 30.7012 25.9575 31.3572L37.111 56.2877H37.2753L48.1009 29.225C47.9366 30.2091 47.9366 31.3572 47.9366 32.1773V51.5313C47.9366 52.0232 47.7726 52.3515 47.4447 52.6794L44.1643 55.7958V55.9598H60.2386V55.7958L57.1222 52.6794Z" fill="black"/>
</svg>
