<svg width="24" height="24" viewBox="0 0 24 24" fill="none" xmlns="http://www.w3.org/2000/svg">
<g id="Frame" clip-path="url(#clip0_176_115)">
<path id="Vector" d="M12 18.8237C8.38504 18.8237 5.45455 15.8932 5.45455 12.2783C5.45455 8.6633 8.38504 5.7328 12 5.7328C15.6149 5.7328 18.5455 8.6633 18.5455 12.2783C18.5455 15.8932 15.6149 18.8237 12 18.8237ZM12 16.6419C14.4099 16.6419 16.3636 14.6882 16.3636 12.2783C16.3636 9.86829 14.4099 7.91462 12 7.91462C9.59003 7.91462 7.63636 9.86829 7.63636 12.2783C7.63636 14.6882 9.59003 16.6419 12 16.6419ZM10.9091 0.278259H13.0909V3.55099H10.9091V0.278259ZM10.9091 21.0055H13.0909V24.2783H10.9091V21.0055ZM2.74333 4.56436L4.28611 3.02159L6.60027 5.33576L5.0575 6.87853L2.74333 4.56436ZM17.3997 19.2208L18.9425 17.6779L21.2567 19.9922L19.7139 21.535L17.3997 19.2208ZM19.7139 3.02159L21.2567 4.56436L18.9425 6.87853L17.3997 5.33576L19.7139 3.02159ZM5.0575 17.6779L6.60027 19.2208L4.28611 21.535L2.74333 19.9922L5.0575 17.6779ZM24 11.1874V13.3692H20.7273V11.1874H24ZM3.27273 11.1874V13.3692H0V11.1874H3.27273Z" fill="black"/>
</g>
<defs>
<clipPath id="clip0_176_115">
<rect width="24" height="24" fill="white"/>
</clipPath>
</defs>
</svg>
